<?xml version="1.0" standalone="no"?>
<!DOCTYPE svg PUBLIC "-//W3C//DTD SVG 1.1//EN" "http://www.w3.org/Graphics/SVG/1.1/DTD/svg11.dtd" >
<!--
2013-9-30: Created.
-->
<svg>
<metadata>
Created by iconfont
</metadata>
<defs>

<font id="iconfont" horiz-adv-x="1024" >
  <font-face
    font-family="iconfont"
    font-weight="500"
    font-stretch="normal"
    units-per-em="1024"
    ascent="896"
    descent="-128"
  />
    <missing-glyph />
    
    <glyph glyph-name="lingdang" unicode="&#60503;" d="M993.07364 470.505325l-235.103576 73.757864L594.318844 707.91441C488.292042 813.941212 329.251839 836.990161 200.175065 774.756771 154.076144 816.245697 84.928275 813.941212 41.134863 770.1478s-43.793412-112.942305-4.609994-159.040203C-25.708522 482.030823-2.659573 322.989597 103.368252 216.962795l163.650197-163.650197 78.367859-230.493581c18.439978-29.964452 55.31891-39.184441 82.977853-20.744463C481.377562-167.962018 585.099878-91.898645 677.296697-15.836295c43.793412-27.658943 103.722316-20.744463 140.601248 16.134469 36.878932 36.878932 43.793412 96.807836 16.134469 140.601248 76.063373 89.892333 152.125723 195.919135 182.090175 248.933559C1032.257058 417.491924 1023.037069 454.370857 993.07364 470.505325z"  horiz-adv-x="1024" />

    
    <glyph glyph-name="a" unicode="&#58951;" d="M626.021382 190.808112 390.614907 190.808112l-41.252543-117.619838c-10.166547-28.950356-15.245216-50.565652-15.245216-64.856124 0-11.362792 4.40738-21.349237 13.227256-29.954219 8.813736-8.614192 27.870768-14.204513 57.171094-16.763802l0-20.336164L213.049792-58.722034l0 20.336164c25.4046 5.496178 41.848107 12.641925 49.323359 21.435195 15.245216 17.588587 32.129768 53.314253 50.669006 107.176998l213.884298 613.384062 15.694447 0 211.642235-619.97927c17.039072-49.836035 32.509415-82.169441 46.410006-97.009428 13.899568-14.839986 33.250288-23.178909 58.066487-25.007557l0-20.336164L618.848005-58.722034l0 20.336164c24.213471 1.460258 40.579207 6.40692 49.099255 14.839986 8.519024 8.423857 12.778024 18.687618 12.778024 30.779004 0 16.119119-5.983271 41.583071-17.935488 76.397994L626.021382 190.808112zM613.467461 231.48044 510.336616 532.676293 404.514475 231.48044 613.467461 231.48044z"  horiz-adv-x="1024" />

    
    <glyph glyph-name="user" unicode="&#58957;" d="M576 189.376l0 52.768c70.496 39.712 128 138.784 128 237.824 0 159.072 0 288-192 288s-192-128.928-192-288c0-99.072 57.504-198.112 128-237.824l0-52.768c-217.088-17.76-384-124.416-384-253.376l896 0c0 128.96-166.912 235.648-384 253.376z"  horiz-adv-x="1024" />

    
    <glyph glyph-name="password" unicode="&#58923;" d="M518.957459 339.242633l-13.900591 0c-11.525498 0-20.856004-9.342786-20.871353-20.856004l0-97.320513c0-11.513218 9.331529-20.856004 20.857027-20.856004l13.904685 0c11.524474 0 20.866237 9.342786 20.866237 20.856004l0 97.320513C539.813462 329.900871 530.4717 339.242633 518.957459 339.242633zM776.157285 391.402597c-0.11768 37.684274-30.636764 68.232011-68.49193 68.774363l0 26.980491c0 110.316501-90.320075 195.666378-195.665355 195.666378-106.691951 0-195.666378-88.977497-195.666378-195.666378l0-26.980491c-37.854143-0.542352-68.373227-31.089066-68.49193-68.774363l-0.005117 0 0-237.208517c0-38.125319 31.116695-69.01791 69.51626-69.01791l389.292284 0c38.400588 0 69.517283 30.893614 69.517283 69.01791l0 19.200294L776.162402 391.184633l0 0.217964L776.157285 391.402597zM512 634.497171c73.293283 0 138.142244-60.483536 138.142244-138.145313l0-36.149315L373.854687 460.202543l0 36.149315C373.854687 571.468672 436.892395 634.497171 512 634.497171zM717.870788 163.02419c0-13.933337-11.529591-25.270547-25.735128-25.270547L331.863317 137.753643c-14.19121 0-25.734104 11.337209-25.734104 25.270547l0 17.772782 0 0L306.129212 382.354524c0 13.933337 11.542894 25.270547 25.734104 25.270547l360.272343 0c14.205537 0 25.734104-11.335163 25.735128-25.267477L717.870788 163.02419z"  horiz-adv-x="1024" />

    
    <glyph glyph-name="aa" unicode="&#58882;" d="M97.480984 57.610889l186.951135 629.393174 68.571464 0 198.527621-629.393174-73.404904 0-56.384855 190.619795-203.931565 0-52.692424-190.619795L97.480984 57.610889zM236.557288 316.065246l165.121416 0-50.378711 174.304953c-15.585864 53.516486-27.0118 97.033296-34.261961 130.518737-6.267625-40.355265-15.118368-80.433202-26.560151-120.210039L236.557288 316.065246zM822.504964 113.861042c-19.904266-22.043658-40.600899-38.643752-62.105747-49.808207-21.512772-11.156531-43.81791-16.742721-66.931264-16.742721-36.559826 0-65.726865 11.727036-87.501118 35.204878-21.782176 23.461995-32.669303 55.093297-32.669303 94.878057 0 26.330365 5.110769 49.657657 15.332307 69.981878 10.213614 20.316297 24.190973 36.203261 41.932076 47.652968 17.741103 11.441783 44.626125 19.888419 80.655065 25.331982 48.381946 7.559184 83.872076 16.576323 106.454543 27.051419l0.404107 19.745792c0 31.1955-5.237548 53.088607-15.720567 65.687247-14.785573 18.311608-37.494819 27.479297-68.151509 27.479297-27.693236 0-48.381946-6.117075-62.097823-18.343302s-23.794789-35.16526-30.244659-68.809174l-58.468781 10.300775c8.335704 48.944527 25.205203 84.577283 50.608498 106.898269 25.403295 22.32891 61.765029 33.493365 109.085203 33.493365 36.821307 0 65.726865-7.376939 86.692904-22.114971 20.966038-14.745955 34.198572-32.994173 39.721371-54.736731 5.499029-21.758405 8.264391-53.524409 8.264391-95.313859l0-103.031517c0-72.129193 1.267788-117.571456 3.827134-136.310942 2.551423-18.74741 7.590878-36.995628 15.118368-54.736731l-62.097823 0C828.4081 73.347303 824.374951 92.102636 822.504964 113.861042zM817.6636 286.438634c-21.774253-11.449707-54.174151-21.187901-97.183846-29.198734-24.999188-4.579883-42.470886-9.809507-52.415095-15.673025-9.952133-5.871442-17.677714-14.167527-23.19259-24.904103s-8.264391-23.113353-8.264391-37.138254c0-21.758405 6.315167-39.142943 18.953425-52.161538 12.638258-13.026518 30.109956-19.531853 52.423019-19.531853 21.235443 0 40.521662 5.863518 57.866582 17.606401 17.336996 11.727036 30.300125 27.40006 38.913157 47.01115 8.597185 19.603166 12.899739 48.152159 12.899739 85.654902L817.6636 286.438634z"  horiz-adv-x="1024" />

    
    <glyph glyph-name="remen-copy" unicode="&#58880;" d="M888 840h-744c-35.328 0-64-28.672-64-64v-776c0-35.392 28.672-64 64-64h744c35.392 0 64 28.608 64 64v776c0 35.328-28.608 64-64 64zM776 115.968h-520v104h520v-104zM776 339.968h-520v104h520v-104zM776 555.968h-520v104h520v-104z"  horiz-adv-x="1024" />

    
    <glyph glyph-name="qq" unicode="&#59118;" d="M892.886281 294.942341C879.574281 327.444859 862.507615 356.685748 844.416948 380.541156 859.170133 391.843081 869.410133 415.622637 869.410133 443.384415 869.410133 481.87923 849.878281 513.054341 825.795319 513.357748 827.881244 528.110933 829.32243 543.053748 829.32243 558.337896 829.32243 736.324267 683.990281 880.556563 504.638578 880.556563 325.400652 880.556563 180.030578 736.324267 180.030578 558.337896 180.030578 541.233304 181.737244 524.583822 184.354133 508.199822 168.235615 497.808119 156.857837 472.739081 156.857837 443.384415 156.857837 426.469452 160.802133 411.109452 167.097837 399.011081 146.200652 376.521007 125.83443 347.697304 109.184948 314.512119 63.142874 222.731378 70.007467 130.002489 98.376059 114.90797 112.901689 107.133156 150.865541 132.012563 188.1088 177.220267 194.025244 123.820563 219.170133 75.085748 257.816652 35.946193 194.06317 17.097007 151.737837-20.032474 157.3888-57.806696 164.443022-105.517511 245.149393-136.085807 337.688652-126.111289 405.651911-118.753659 460.909985-91.56077 482.755319-58.716919 488.444207-58.9824 494.057244-59.437511 499.821985-59.437511 509.758578-59.437511 519.543467-58.944474 529.252504-58.223881 552.728652-89.361067 604.725096-115.264474 667.568356-123.30477 757.301096-134.720474 834.973393-105.403733 841.003615-57.806696 845.782281-20.297956 804.594726 17.324563 743.040948 37.197748 779.336059 74.441007 803.419022 120.179674 810.624948 170.241896 843.734281 124.920415 877.602133 95.527822 895.313541 99.434193 916.248652 104.02323 931.191467 201.530785 892.886281 294.942341"  horiz-adv-x="1024" />

    
    <glyph glyph-name="shuqian" unicode="&#58913;" d="M665.6 696.33024l0-624.64c0-4.01408-2.34496-7.63904-5.98016-9.30816-1.36192-0.63488-2.816-0.93184-4.25984-0.93184-2.4064 0-4.80256 0.84992-6.69696 2.48832L486.4 204.0832 324.13696 63.93856c-3.04128-2.63168-7.3216-3.24608-10.9568-1.55648C309.54496 64.0512 307.2 67.67616 307.2 71.69024l0 624.64c0 5.66272 4.57728 10.24 10.24 10.24l337.92 0C661.02272 706.57024 665.6 701.99296 665.6 696.33024z"  horiz-adv-x="1024" />

    
    <glyph glyph-name="zhanghao" unicode="&#58926;" d="M396.8 307.2C206.2592 307.2 64 177.9712 64-9.7024L64-29.9008C64-128 216.4736-128 409.472-128L614.5024-128C799.8976-128 960-128 960-29.9008L960-9.7024C960 177.9456 817.7152 307.2 627.2 307.2L396.8 307.2ZM501.7344 356.5824C652.5952 356.5824 775.3728 477.568 775.3728 626.304 775.3728 775.0144 652.5952 896 501.7344 896 350.8736 896 228.1216 774.9888 228.1216 626.304 228.1216 477.5936 350.8736 356.5824 501.7344 356.5824L501.7344 356.5824Z"  horiz-adv-x="1024" />

    
    <glyph glyph-name="zuanshi" unicode="&#58906;" d="M1023.261256 574.491129c-0.782093 1.802607-1.659916 3.576315-2.655143 5.268742L878.751056 819.403651l-111.055404-244.914328L1023.261256 574.489323 1023.261256 574.491129 1023.261256 574.491129zM321.331861 574.491129l378.923169 0L510.804283 844.408953 321.331861 574.491129 321.331861 574.491129zM471.880253 856.4167l-267.501102 0c-10.447173 0-21.698114-3.794867-31.267465-9.964913l114.510701-252.540187L471.880253 856.4167 471.880253 856.4167 471.880253 856.4167zM849.923793 849.578354c-8.261648 4.304221-17.343319 6.838347-25.877706 6.838347L549.730118 856.4167l184.257866-262.505099L849.923793 849.578354 849.923793 849.578354 849.923793 849.578354zM310.570406 535.563488l199.706461-622.141457c0.469617-0.061411 0.937428-0.121017 1.407045-0.158947l199.393985 622.300404L310.570406 535.563488 310.570406 535.563488 310.570406 535.563488zM145.80526 812.915711 7.797449 579.776128c-1.074701-1.806219-2.109664-3.578121-3.104891-5.268742l249.216743 0L145.80526 812.915711 145.80526 812.915711 145.80526 812.915711zM0.063218 535.563488l1.094569-1.945298 2.050059 0c2.322798-2.864664 5.489101-6.776935 9.296612-11.557998l438.257478-549.860166-180.838693 563.385137L0.063218 535.585162 0.063218 535.563488 0.063218 535.563488zM1024.063218 535.563488 751.699772 535.563488 566.349144-42.89997l450.274256 564.942099C1019.804152 526.053742 1022.284092 530.646958 1024.063218 535.563488L1024.063218 535.563488 1024.063218 535.563488zM1024.063218 535.563488"  horiz-adv-x="1025" />

    
    <glyph glyph-name="fangkuai" unicode="&#59265;" d="M419.936723 757.922225 90.403474 757.922225c-14.360056 0-26.000164-11.640108-26.000164-26.000164l0-329.533248c0-14.360056 11.640108-26.000164 26.000164-26.000164l329.533248 0c14.359033 0 26.000164 11.640108 26.000164 26.000164L445.936887 731.922061C445.936887 746.282117 434.295755 757.922225 419.936723 757.922225zM944.651302 625.351883 753.363651 816.638511c-9.828856 9.828856-22.898523 15.242146-36.799114 15.242146-13.898545 0-26.967188-5.411243-36.801161-15.242146l-191.286628-191.287651c-20.288069-20.292162-20.287045-53.30709 0.002047-73.598228l191.287651-191.286628c9.829879-9.828856 22.898523-15.242146 36.799114-15.242146 13.898545 0 26.968212 5.412266 36.801161 15.243169l191.286628 191.286628C964.937324 572.04377 964.938348 605.057675 944.651302 625.351883zM716.565561 410.496467l-178.056302 178.055279 178.054255 178.055279 178.057325-178.055279L716.565561 410.496467zM419.936723 317.923072 90.403474 317.923072c-14.360056 0-26.000164-11.641131-26.000164-26.000164l0-329.533248c0-14.360056 11.640108-26.000164 26.000164-26.000164l329.533248 0c14.359033 0 26.000164 11.641131 26.000164 26.000164L445.936887 291.921885C445.936887 306.281941 434.295755 317.923072 419.936723 317.923072zM868.555184 317.923072 539.021935 317.923072c-14.359033 0-26.000164-11.641131-26.000164-26.000164l0-329.533248c0-14.360056 11.641131-26.000164 26.000164-26.000164L868.555184-63.610504c14.359033 0 25.999141 11.641131 25.999141 26.000164L894.554324 291.921885C894.555347 306.281941 882.915239 317.923072 868.555184 317.923072z"  horiz-adv-x="1024" />

    
    <glyph glyph-name="weibo" unicode="&#58932;" d="M958.276267 433.408C953.156267 420.9152 941.0048 413.354667 928.2048 413.354667 924.125867 413.354667 920.029867 414.1056 916.0192 415.709867 899.396267 422.365867 891.392 441.105067 898.133333 457.540267 919.8592 510.600533 909.294933 578.116267 871.8848 625.493333 843.400533 661.538133 787.541333 701.405867 683.298133 686.677333 665.480533 684.219733 649.096533 696.405333 646.6048 713.9328 644.078933 731.511467 656.4352 747.776 674.184533 750.267733 779.451733 765.115733 867.822933 734.856533 922.9824 665.088 974.2848 600.183467 988.450133 507.0848 958.276267 433.408ZM716.8512 401.9712C716.8512 401.9712 859.0336 398.472533 859.0336 278.852267 859.0336 192.119467 755.985067 13.909333 426.5984 13.909333 164.778667 13.909333 49.885867 151.0912 49.885867 256.597333 49.885867 430.114133 362.5984 722.039467 490.5472 630.5792 524.936533 605.986133 532.0192 536.763733 488.192 502.801067 837.700267 614.1952 716.8512 401.9712 716.8512 401.9712ZM402.346667 432.520533C248.8832 418.372267 132.369067 323.413333 142.1312 220.433067 151.773867 117.418667 284.0064 45.4144 437.435733 59.562667 590.8992 73.693867 707.3792 168.6528 697.685333 271.650133 688.008533 374.647467 555.776 446.651733 402.346667 432.520533ZM426.871467 103.168C343.790933 89.258667 266.7008 135.082667 254.6688 205.482667 242.602667 275.8656 300.168533 344.2688 383.249067 358.1952 466.3296 372.0704 543.3856 326.280533 555.451733 255.863467 567.483733 185.429333 509.917867 117.077333 426.871467 103.168ZM405.111467 214.698667C398.353067 239.0528 371.080533 252.842667 344.234667 245.521067 317.44 238.199467 301.1584 212.548267 307.899733 188.16 314.709333 163.84 341.9648 150.050133 368.810667 157.3376 395.639467 164.693333 411.886933 190.344533 405.111467 214.698667ZM438.510933 284.910933C424.721067 284.910933 413.525333 273.834667 413.525333 260.1984 413.525333 246.545067 424.721067 235.52 438.510933 235.52 452.3008 235.52 463.4624 246.545067 463.4624 260.1984 463.4624 273.8176 452.3008 284.910933 438.510933 284.910933ZM714.581333 570.129067C696.763733 567.671467 680.413867 579.84 677.870933 597.384533 675.345067 614.929067 687.701333 631.1936 705.3824 633.7024 777.506133 643.908267 816.110933 610.2016 832.682667 589.192533 859.716267 554.990933 866.833067 507.665067 850.8416 468.6336 845.755733 456.157867 833.570133 448.580267 820.770133 448.580267 816.6912 448.580267 812.629333 449.3312 808.584533 450.935467 791.978667 457.591467 783.957333 476.3136 790.698667 492.7488 797.832533 510.344533 794.129067 533.7088 781.568 549.649067 767.624533 567.278933 744.3968 574.3616 714.581333 570.129067Z"  horiz-adv-x="1024" />

    
    <glyph glyph-name="iconfontduihuakuang1-copy" unicode="&#58886;" d="M805.87 701.744h-587.474c-31.14 0-56.51-25.344-56.51-56.51l-0.11-417.097-0.12-128.311 120.723 128.41 523.467-0.981c31.139 0 56.482 25.343 56.482 56.483v361.517c0.025 31.14-25.319 56.483-56.455 56.483l-0.005 0.001zM568.65 340.249h-225.979v22.575h225.979v-22.575zM681.591 453.214h-338.92v22.574h338.92v-22.574zM681.591 566.179h-338.92v22.574h338.92v-22.574z"  horiz-adv-x="1024" />

    
    <glyph glyph-name="iconfont12" unicode="&#58947;" d="M812.077576 673.508804C679.225952 633.493103 654.903015 520.066772 663.473084 448.02359 568.698181 565.674316 572.588928 701.015243 572.588928 896 268.634796 774.963219 339.322144 425.983368 330.23172 320.007935c-76.452957 66.086517-90.899811 223.986755-90.899811 223.986755-80.705887-43.858032-121.177925-160.988342-121.177925-255.998535C118.153984 58.240906 294.485992-128 512-128s393.846008 186.240906 393.846008 415.996155C905.846008 424.534851 810.928467 487.519012 812.077576 673.508804L812.077576 673.508804z"  horiz-adv-x="1024" />

    
    <glyph glyph-name="chakan" unicode="&#59008;" d="M512 730.112c-231.424 0-430.08-143.36-512-346.112 81.92-202.752 280.576-346.112 512-346.112 231.44448 0 430.08 143.36 512 346.112-81.92 202.752-280.55552 346.112-512 346.112zM512 199.68c-102.4 0-184.32 81.92-184.32 184.32s81.92 184.32 184.32 184.32 184.32-81.92 184.32-184.32-81.92-184.32-184.32-184.32zM626.70848 384c0-63.488-51.2-114.688-114.70848-114.688-63.488 0-114.688 51.2-114.688 114.688 0 63.488 51.2 114.688 114.688 114.688 63.50848 0 114.70848-51.2 114.70848-114.688z"  horiz-adv-x="1024" />

    
    <glyph glyph-name="yanjing-copy" unicode="&#58881;" d="M25.26 33.275q-0.972-0.972-2.915-3.886-8.743-9.715-13.602-15.059t-8.744-13.602 0.486-11.658 18.945-3.4 40.805 5.829q40.805 8.743 112.698 46.148t159.332 94.239 179.734 132.615 170.99 155.932 135.044 170.99 70.922 171.476q0 70.921-160.304-101.040l-66.065-74.808q0 3.886-0.486 10.687t0.972 25.746 6.314 36.918 16.516 40.805 30.118 39.347q-45.662-8.744-80.638-28.66t-54.406-42.748-33.518-52.463-18.946-51.491-10.201-46.148-7.287-32.061q-1.943 13.602-7.287 37.404t-8.258 38.861-1.457 41.29 10.201 54.406q-106.869-38.861-186.535-375.985-14.573-42.748-61.207-87.924t-93.268-74.808-89.381-55.378-48.577-31.575z"  horiz-adv-x="1024" />

    
    <glyph glyph-name="arrow-down-new" unicode="&#59004;" d="M512.128 548.8c0.003 0 0.006 0 0.008 0 9.137 0 17.379-3.829 23.21-9.97l251.277-265.614c5.415-5.72 8.743-13.464 8.744-21.984 0-17.678-14.33-32.008-32.008-32.008-9.157 0-17.416 3.845-23.25 10.009l-228.045 241.103-228.224-241.088c-5.855-6.165-14.113-10.001-23.266-10.001-8.516 0-16.256 3.32-21.998 8.736-12.784 12.145-13.36 32.434-1.264 45.233l251.52 265.6c5.844 6.155 14.086 9.984 23.223 9.984 0.025 0 0.051 0 0.076 0z"  horiz-adv-x="1024" />

    
    <glyph glyph-name="right" unicode="&#58883;" d="M511.87199999999996 219.20000000000005a32 32 0 0 0-23.232000000000006 9.983999999999988l-251.264 265.6a32 32 0 0 0 46.527999999999956 43.96800000000002l228.03200000000024-241.08799999999982 228.22399999999982 241.08800000000016a32.064 32.064 0 0 0 45.248 1.2800000000000367c12.80000000000001-12.159999999999993 13.376000000000012-32.44799999999998 1.2800000000000367-45.248l-251.51999999999998-265.5999999999999a32 32 0 0 0-23.296-9.98400000000002z"  horiz-adv-x="1024" />

    
    <glyph glyph-name="chat" unicode="&#58950;" d="M947.9421542399998 445.50961493333324l-34.081476835555556 0 0-150.18940416L788.537809351111 445.50961493333324l-87.08003043555556 0L701.4577789155555 655.91635968c0 39.83402666666667-46.18831303111111 86.6829312-86.00301340444443 86.6829312L426.5180296533334 742.59929088l0 76.08901063111111c0 39.83402666666667 32.94391409777778 72.11527167999999 72.80169528888888 72.11527167999999l448.6224292977777 0c39.83682332444444 0 72.1182264888889-32.28124501333333 72.1182264888889-72.11527167999999l0-304.3735051377778C1020.0603807288888 474.4796046222222 987.7789775644442 445.50961493333324 947.9421542399998 445.50961493333324zM659.4494555022223 619.8488268799999l0-355.2997705955556c0-39.83402666666667-32.282567111111106-72.11527167999999-72.1182264888889-72.11527167999999L225.9739613866667 192.43378460444467 107.93638570666661 42.8847422577777 107.93638570666661 192.43262065777787 74.5150919111112 192.43262065777787c-39.81470037333334 0-72.1182264888889 32.28240896-72.1182264888889 72.11527167999999L2.3968654222223336 627.7951408355555c0 39.83402666666667 32.303524977777776 72.11527167999999 72.1182264888889 72.11527167999999l512.8149742933333 0C627.1668883911111 699.9104125155557 659.4494555022223 659.6828535466666 659.4494555022223 619.8488268799999z"  horiz-adv-x="1024" />

    
    <glyph glyph-name="renminbi" unicode="&#58919;" d="M512 896C229.068 896 0 666.932 0 384s229.068-512 512-512 512 229.068 512 512S794.932 896 512 896z m166.918-487.14v-57.415H547.514v-79.907h131.404v-57.415H547.514v-114.83h-71.028v114.83H340.939v57.415h134.955v79.907H340.939V408.86h113.646L315.487 668.708h81.683l97.073-202.433c5.327-11.246 11.246-25.452 18.349-43.21h2.368c4.735 14.207 11.246 29.004 18.94 44.986l97.665 200.657h76.948L567.047 408.86h111.87z"  horiz-adv-x="1024" />

    
    <glyph glyph-name="small-arrow-right" unicode="&#58903;" d="M676.8 383.87199999999996c0-0.003 0-0.006 0-0.008 0-9.137-3.829-17.37900001-9.97-23.20999999l-265.614-251.27700001c-5.72-5.415-13.464-8.743-21.984-8.744-17.678 0-32.008 14.33-32.008 32.008 0 9.15700001 3.84499999 17.416 10.00900001 23.25l241.10299999 228.04500001-241.088 228.22399999c-6.165 5.855-10.001 14.113-10.001 23.266 0 8.516 3.32 16.256 8.736 21.998 12.145 12.784 32.434 13.36 45.233 1.264l265.6-251.52c6.155-5.844 9.984-14.086 9.984-23.223 0-0.025 0-0.05100001 0-0.076z"  horiz-adv-x="1024" />

    
    <glyph glyph-name="shenglvehao" unicode="&#58959;" d="M512.3 382.3m-447.9 0a447.9 447.9 0 1 1 895.8 0 447.9 447.9 0 1 1-895.8 0ZM299 330.4c-28.6 0-51.9 23.3-51.9 51.9 0 28.6 23.3 51.9 51.9 51.9 28.6 0 51.9-23.3 51.9-51.9 0-28.7-23.2-51.9-51.9-51.9zM512.3 330.4c-28.6 0-51.9 23.3-51.9 51.9 0 28.6 23.3 51.9 51.9 51.9 28.6 0 51.9-23.3 51.9-51.9 0-28.7-23.3-51.9-51.9-51.9zM725.5 330.4c-28.6 0-51.9 23.3-51.9 51.9 0 28.6 23.3 51.9 51.9 51.9 28.6 0 51.9-23.3 51.9-51.9-0.1-28.7-23.3-51.9-51.9-51.9z"  horiz-adv-x="1024" />

    
    <glyph glyph-name="zhinanzhen-copy" unicode="&#58884;" d="M984.02304 583.409664c-25.8048 61.00855467-62.73979733 115.79118933-109.78372267 162.82965333-47.038464 47.038464-101.82656 83.97346133-162.82965333 109.77826134C648.23296 882.73988267 581.14594133 896.28945067 512 896.28945067s-136.23842133-13.54410667-199.409664-40.271872c-61.00309333-25.8048-115.79118933-62.73979733-162.82965333-109.77826134-47.04392533-47.038464-83.97346133-101.82656-109.78372267-162.82965333C13.26011733 520.2384213299999-0.28945067 453.14594133-0.28945067 384s13.54410667-136.23296 40.26641067-199.41512533c25.8048-61.00309333 62.73979733-115.785728 109.78372267-162.824192 47.038464-47.038464 101.82656-83.97892267 162.82965333-109.78372267 63.17124267-26.722304 130.26372267-40.26641067 199.409664-40.26641067s136.23296 13.54410667 199.409664 40.26641067c61.00855467 25.8048 115.79118933 62.73979733 162.82965333 109.78372267s83.97346133 101.82656 109.78372267 162.824192c26.722304 63.17124267 40.26641067 130.26372267 40.26641067 199.41512533 0 69.14594133-13.549568 136.23296-40.26641067 199.409664z m-194.46715733 62.04074667l-210.15210667-325.38624a11.665408 11.665408 0 0 0-3.46794667-3.46794667l-325.39716266-210.13026133a11.65448533 11.65448533 0 0 0-14.548992 1.54555733 11.64356267 11.64356267 0 0 0-1.54555734 14.548992l210.141184 325.38624c0.89565867 1.38717867 2.07530667 2.56682667 3.46248534 3.46794667l325.41354666 210.13026133a11.63810133 11.63810133 0 0 0 16.09454934-16.09454933zM512 432.75332267c-26.886144 0-48.758784-21.87264-48.758784-48.75332267s21.87264-48.758784 48.758784-48.758784c26.88068267 0 48.758784 21.87810133 48.758784 48.758784 0 26.88068267-21.87810133 48.75332267-48.758784 48.75332267z"  horiz-adv-x="1024" />

    
    <glyph glyph-name="rightArrow" unicode="&#58885;" d="M676.8 383.87199999999996c0-0.003 0-0.006 0-0.008 0-9.137-3.829-17.37900001-9.97-23.20999999l-265.614-251.27700001c-5.72-5.415-13.464-8.743-21.984-8.744-17.678 0-32.008 14.33-32.008 32.008 0 9.15700001 3.84499999 17.416 10.00900001 23.25l241.10299999 228.04500001-241.088 228.22399999c-6.165 5.855-10.001 14.113-10.001 23.266 0 8.516 3.32 16.256 8.736 21.998 12.145 12.784 32.434 13.36 45.233 1.264l265.6-251.52c6.155-5.844 9.984-14.086 9.984-23.223 0-0.025 0-0.05100001 0-0.076z"  horiz-adv-x="1024" />

    
    <glyph glyph-name="xin" unicode="&#58910;" d="M154.63936 487.552c3.23072 86.17472 41.35424 152.31488 118.56896 191.58528 78.08 39.71072 155.04384 32.18432 226.5856-18.2784 13.08672-9.23136 19.90144-10.63424 33.63328-0.47616 83.92192 62.10048 195.25632 56.57088 272.98304-11.93984 75.87328-66.87744 95.94368-178.52928 45.44-267.8272-75.27424-133.08416-179.01568-239.5136-308.25472-321.13664-18.58048-11.73504-36.8896-10.82368-55.1424 0.80896-127.3344 81.18272-229.52448 186.60352-305.26464 317.34784-19.56864 33.79712-29.67552 70.4-28.54912 109.91616z"  horiz-adv-x="1024" />

    
    <glyph glyph-name="kuang" unicode="&#58887;" d="M908.72832 801.0752H146.30912c-36.91008 0-66.94912-30.03392-66.94912-66.94912v-482.31936c0-36.92032 30.03392-66.94912 66.94912-66.94912h132.1984c21.46816 0 38.9376-17.4592 38.9376-38.93248v-145.57696l204.32896 175.13984a38.90176 38.90176 0 0 0 25.32864 9.3696h361.6256c36.9152 0 66.94912 30.0288 66.94912 66.94912V734.1312c0.00512 36.91008-30.03392 66.944-66.94912 66.944z"  horiz-adv-x="1024" />

    
    <glyph glyph-name="shoujixiazai" unicode="&#58982;" d="M742.4 844.8h-456.533333c-21.333333 0-38.4-17.066667-38.4-38.4V-29.866667c0-21.333333 17.066667-38.4 38.4-38.4h456.533333c21.333333 0 38.4 17.066667 38.4 38.4v836.266667c0 17.066667-17.066667 38.4-38.4 38.4z m-221.866667-878.933333c-17.066667 0-34.133333 12.8-34.133333 34.133333 0 17.066667 12.8 34.133333 34.133333 34.133333 17.066667 0 34.133333-12.8 34.133334-34.133333-4.266667-17.066667-17.066667-34.133333-34.133334-34.133333z m204.8 110.933333h-426.666666v674.133333h430.933333v-674.133333zM345.6 443.733333h128V567.466667h93.866667v-123.733334h123.733333l-170.666667-187.733333z"  horiz-adv-x="1024" />

    
    <glyph glyph-name="qianbao" unicode="&#59058;" d="M905.6 649.408H163.072s-56.192 11.392-56.192 45.376L916.992 774.4V842.304s-9.984 62.208-101.12 45.44L95.552 762.88S5.568 751.488 5.568 637.952v-647.04c0-62.72 50.368-113.472 112.576-113.472h787.712c62.144 0 112.512 50.752 112.512 113.472V535.936a113.344 113.344 0 0 1-112.768 113.472z m-67.328-465.536c-43.648 0-78.72 35.648-78.72 79.488s35.136 79.552 78.72 79.552c43.52 0 78.72-35.648 78.72-79.552s-35.264-79.488-78.72-79.488z"  horiz-adv-x="1024" />

    
    <glyph glyph-name="fresh" unicode="&#59532;" d="M505.6 195.20000000000005l80-80H512c-147.2 0-268.8 120-268.8 268.8 0 72 27.2 139.2 78.4 188.8l-28.8 28.8c-57.6-57.6-89.6-136-89.6-217.6 0-169.6 137.6-307.2 307.2-307.2h121.6l14.4 33.6-112 113.6-28.8-28.8zM512 691.2h-105.6l-14.4-33.6 113.6-113.6 28.8 28.8-80 80H512c147.2 0 268.8-120 268.8-268.8 0-72-27.2-139.2-78.4-188.8l28.8-28.8c57.6 57.6 89.6 136 89.6 217.6 0 169.6-137.6 307.2-308.8 307.2z"  horiz-adv-x="1024" />

    
    <glyph glyph-name="fangdajing" unicode="&#58904;" d="M954.12147559-58.13332236999997a26.91730547 26.91730547 0 0 0-38.00647705 0l-201.71392471 201.71392383a391.86478125 391.86478125 0 0 0-258.58147061-97.24350322C238.32493526 46.31340293000005 62.01184766 222.65018583999995 62.01184766 440.14485469 62.01184766 657.66321797 238.32493526 834 455.84329854 834s393.85514531-176.33678203 393.85514531-393.85514531c0-99.0680045-36.86912578-189.34523349-97.24350322-258.58147149l201.69022939-201.71392382a26.82252597 26.82252597 0 0 0-0.02369443-37.98278175zM455.84329854 777.72482461c-186.43077158 0-337.57996992-151.12550391-337.57996992-337.60366523 0-186.43077158 151.14919834-337.57996992 337.57996992-337.57996993 86.32019619 0 164.79740917 32.67514424 224.4846375 85.94107911a26.70405205 26.70405205 0 0 0 27.17794775 27.17794775 335.94502763 335.94502763 0 0 1 85.91738467 224.46094307c0 186.50185576-151.12550391 337.60366523-337.57996992 337.60366523z"  horiz-adv-x="1024" />

    
    <glyph glyph-name="wenhao" unicode="&#58978;" d="M512 814.592a422.4 422.4 0 1 1 422.4-422.4A422.4 422.4 0 0 1 512 814.592z m26.624-629.76a45.056 45.056 0 0 0-31.232-12.288 42.496 42.496 0 0 0-31.232 12.8 41.984 41.984 0 0 0-12.8 30.72 39.424 39.424 0 0 0 12.8 30.72 42.496 42.496 0 0 0 31.232 12.288 43.008 43.008 0 0 0 31.744-12.288 39.424 39.424 0 0 0 12.8-30.72 43.008 43.008 0 0 0-13.312-31.744z m87.04 235.52a617.472 617.472 0 0 0-51.2-47.104 93.184 93.184 0 0 1-25.088-31.232 80.896 80.896 0 0 1-9.728-39.936v-10.24H475.648v10.24a119.808 119.808 0 0 0 12.288 57.344A311.296 311.296 0 0 0 555.52 435.2l10.24 11.264a71.168 71.168 0 0 1 16.896 44.032A69.632 69.632 0 0 1 563.2 537.6a69.632 69.632 0 0 1-51.2 17.92 67.072 67.072 0 0 1-58.88-26.112 102.4 102.4 0 0 1-16.384-61.44h-61.44a140.288 140.288 0 0 0 37.888 102.4 140.8 140.8 0 0 0 104.96 38.4 135.68 135.68 0 0 0 96.256-29.184 108.032 108.032 0 0 0 36.352-86.528 116.736 116.736 0 0 0-25.088-73.216z"  horiz-adv-x="1024" />

    
    <glyph glyph-name="arrow-left" unicode="&#58888;" d="M347.2 384.128c0 0.003 0 0.006 0 0.008 0 9.137 3.829 17.37900001 9.97 23.20999999l265.614 251.27700001c5.72 5.415 13.464 8.743 21.984 8.744 17.678 0 32.008-14.33 32.008-32.008 0-9.15700001-3.84499999-17.416-10.00900001-23.25l-241.10299999-228.04500001 241.088-228.22399999c6.165-5.855 10.001-14.113 10.001-23.266 0-8.516-3.32-16.256-8.736-21.998-12.145-12.784-32.434-13.36-45.233-1.264l-265.6 251.52c-6.155 5.844-9.984 14.086-9.984 23.223 0 0.025 0 0.05100001 0 0.076z"  horiz-adv-x="1024" />

    
    <glyph glyph-name="weixin" unicode="&#59205;" d="M670.564352 528.09728c10.278912 0 20.451328-0.751616 30.537728-1.880064-27.437056 127.772672-164.048896 222.703616-319.973376 222.703616-174.32576 0-317.128704-118.818816-317.128704-269.703168 0-87.093248 47.509504-158.611456 126.902272-214.079488l-31.721472-95.39584 110.860288 55.588864c39.667712-7.852032 71.499776-15.919104 111.085568-15.919104 9.951232 0 19.818496 0.49152 29.605888 1.257472-6.199296 21.202944-9.787392 43.411456-9.787392 66.44736 0.002048 138.545152 118.980608 250.980352 269.6192 250.980352z m-170.512384 85.979136c23.877632 0 39.694336-15.710208 39.694336-39.573504 0-23.76704-15.816704-39.692288-39.694336-39.692288-23.773184 0-47.620096 15.925248-47.620096 39.692288-0.002048 23.86944 23.846912 39.573504 47.620096 39.573504z m-221.947904-79.265792c-23.76704 0-47.755264 15.925248-47.755264 39.698432 0 23.863296 23.988224 39.56736 47.755264 39.56736 23.769088 0 39.58784-15.704064 39.58784-39.56736 0-23.773184-15.818752-39.698432-39.58784-39.698432zM960 280.930304c0 126.785536-126.869504 230.129664-269.365248 230.129664-150.888448 0-269.727744-103.344128-269.727744-230.129664 0-127.00672 118.839296-230.129664 269.727744-230.129664 31.58016 0 63.434752 7.962624 95.15008 15.910912l86.982656-47.630336-23.84896 79.249408c63.655936 47.755264 111.081472 111.079424 111.081472 182.59968z m-356.820992 39.677952c-15.79008 0-31.721472 15.710208-31.721472 31.735808 0 15.80032 15.929344 31.711232 31.721472 31.711232 23.988224 0 39.698432-15.910912 39.698432-31.711232 0-16.027648-15.710208-31.735808-39.698432-31.735808z m174.436352 0c-15.679488 0-31.49824 15.710208-31.49824 31.735808 0 15.80032 15.8208 31.711232 31.49824 31.711232 23.769088 0 39.694336-15.910912 39.694336-31.711232 0-16.027648-15.925248-31.735808-39.694336-31.735808z m0 0"  horiz-adv-x="1024" />

    
    <glyph glyph-name="xingzhuang" unicode="&#58941;" d="M1023.488 452.022857c-2.925714 38.180571-10.093714 41.618286-47.835429 38.692572-41.910857-3.364571-77.238857 17.408-91.721142 53.833142-14.848 37.229714-4.096 75.629714 28.525714 102.253715 22.016 17.993143 24.649143 32.621714 4.754286 53.686857a1512.594286 1512.594286 0 0 1-93.915429 91.136c-25.307429 22.381714-37.083429 19.529143-58.514286-7.387429-24.868571-32.548571-69.266286-43.008-105.984-25.014857-35.693714 16.676571-52.443429 47.104-49.664 90.185143 1.828571 29.549714-6.802286 39.936-36.425143 42.130286C549.741714 893.366857 526.555429 894.610286 504.905143 896c-22.747429-2.486857-43.885714-4.315429-64.950857-7.168-29.403429-3.949714-35.766857-12.507429-33.206857-42.569143 3.949714-45.641143-15.140571-79.945143-53.028572-95.524571-36.864-15.286857-74.898286-4.315429-103.862857 29.696-17.115429 20.187429-32.036571 23.113143-50.907429 5.266285-32.109714-29.622857-62.756571-60.708571-92.013714-93.184-24.795429-27.867429-21.942857-37.302857 6.656-61.074285 27.136-22.674286 38.985143-51.638857 31.305143-86.747429-7.68-35.620571-30.281143-58.587429-65.682286-66.779428-13.019429-2.998857-27.355429-1.097143-41.033143-0.950858-18.505143 0.146286-30.281143-8.265143-32.694857-26.477714a482.596571 482.596571 0 0 1 2.121143-151.113143c3.584-19.821714 14.336-27.501714 34.377143-26.258285 10.605714 0.585143 21.357714 3.145143 31.670857 2.048 37.083429-3.584 66.121143-28.16 76.141714-62.756572 10.020571-34.450286-1.828571-69.558857-31.524571-93.403428-24.502857-19.675429-27.209143-33.28-5.924571-55.881143 29.476571-31.305143 60.050286-61.805714 92.306285-90.112 27.574857-24.137143 37.961143-21.357714 60.928 7.972571a87.332571 87.332571 0 0 0 126.537143 12.580572c25.819429-22.162286 32.768-50.102857 29.403429-82.578286-2.56-24.064 6.290286-37.888 27.355428-38.326857 47.469714-0.950857 94.939429-1.097143 142.189715 1.682285 30.793143 1.828571 36.790857 12.8 33.426285 43.812572-5.12 44.909714 13.824 80.164571 51.565715 96.109714 38.180571 16.164571 76.8 5.193143 105.033142-29.769143 17.334857-21.284571 32.475429-24.429714 52.150858-5.778285a1622.308571 1622.308571 0 0 1 93.915428 96.402285c21.650286 24.356571 18.578286 37.449143-7.533714 57.051429a84.845714 84.845714 0 0 0-35.620572 65.243428c-3.218286 55.296 41.984 97.28 98.157715 91.794286 28.672-2.852571 42.715429 5.266286 43.300571 30.281143 1.097143 44.105143 1.462857 88.502857-1.901714 132.534857h-0.073143z m-509.074286-291.254857C391.241143 162.157714 292.352 262.290286 294.034286 384c1.609143 120.246857 100.937143 219.062857 219.648 218.477714 122.660571-0.512 223.963429-101.229714 222.646857-221.696-1.243429-122.075429-101.376-221.330286-221.915429-219.940571v-0.073143z"  horiz-adv-x="1026" />

    
    <glyph glyph-name="bianji" unicode="&#59077;" d="M517.162929 55.138462a39.384615 39.384615 0 0 0-25.993846-28.908308L131.508775-94.916923a39.384615 39.384615 0 0 0-50.963692 45.922461l82.707692 370.451693a39.384615 39.384615 0 0 0 5.12 12.366769 39.227077 39.227077 0 0 0 9.216 17.959385L601.761083 823.059692a187.943385 187.943385 0 0 0 265.452308 13.942154l56.241231-50.648615c77.115077-69.474462 83.337846-188.258462 13.863384-265.452308L634.450314 184.556308a39.384615 39.384615 0 1 0-58.525539 52.696615l227.643077 252.849231-218.505846 196.686769-322.638769-358.4 247.729231-222.995692a39.384615 39.384615 0 0 0 7.08923-50.254769z m-101.060923 28.908307l-187.470769 168.802462-56.083692-250.722462 243.554461 81.92z m221.656616 661.267693l218.505846-196.765539 22.528 25.127385a109.174154 109.174154 0 0 1-8.034462 154.151384l-56.241231 50.569846a109.174154 109.174154 0 0 1-154.151384-8.034461l-22.606769-25.048615z"  horiz-adv-x="1024" />

    
    <glyph glyph-name="tuichu" unicode="&#58911;" d="M696.4-30H237.3c-67.5 0-122.4 54.9-122.4 122.4V675c0 67.5 54.9 122.4 122.4 122.4h459.1c67.5 0 122.4-54.9 122.4-122.4v-67.6c0-14-11.3-25.3-25.3-25.3s-25.3 11.3-25.3 25.3V675c0 39.6-32.2 71.8-71.8 71.8H237.3c-39.6 0-71.8-32.2-71.8-71.8v-582.7c0-39.6 32.2-71.8 71.8-71.8h459.1c39.6 0 71.8 32.2 71.8 71.8v85.2c0 14 11.3 25.3 25.3 25.3s25.3-11.3 25.3-25.3v-85.2c0-67.4-54.9-122.3-122.4-122.3zM734.2 210.9c-6.5 0-12.9 2.5-17.9 7.4-9.9 9.9-9.9 25.9 0 35.8L846 383.7 716.3 513.4c-9.9 9.9-9.9 25.9 0 35.8 9.9 9.9 25.9 9.9 35.8 0l147.6-147.6c9.9-9.9 9.9-25.9 0-35.8L752.1 218.3c-5-5-11.4-7.4-17.9-7.4zM876.7 358.4h-507c-14 0-25.3 11.3-25.3 25.3s11.3 25.3 25.3 25.3h507c14 0 25.3-11.3 25.3-25.3s-11.3-25.3-25.3-25.3z"  horiz-adv-x="1024" />

    


  </font>
</defs>
</svg>
